# xmcd
# Copyright (C) 1995-1998 Ti Kan
#
# Track frame offsets:
#       150
#       23774
#       46635
#       62527
#       82629
#       97263
#       121146
#       141704
#       159056
#       174273
#
# Disc length: 2616 seconds
#
# Revision: 0
# Processed by: cddbd v1.5.2PL0 Copyright (c) Steve Scherf et al.
# Submitted via: CD-Import v1.0
#
DISCID=6e0a360a
DTITLE=Foo Fighters - In Your Honor - Disc Two
DYEAR=2005
DGENRE=
TTITLE0=Still
TTITLE1=What If I Do?
TTITLE2=Miracle
TTITLE3=Another Round
TTITLE4=Friend Of A Friend
TTITLE5=Over And Out
TTITLE6=On The Mend
TTITLE7=Virginia Moon
TTITLE8=Cold Day In The Sun
TTITLE9=Razor
EXTD=
EXTT0=
EXTT1=
EXTT2=
EXTT3=
EXTT4=
EXTT5=
EXTT6=
EXTT7=
EXTT8=
EXTT9=
PLAYORDER=
